<?xml version="1.0" encoding="UTF-8" standalone="no"?>
<!-- Created with Inkscape (http://www.inkscape.org/) -->

<svg
   xmlns:dc="http://purl.org/dc/elements/1.1/"
   xmlns:cc="http://creativecommons.org/ns#"
   xmlns:rdf="http://www.w3.org/1999/02/22-rdf-syntax-ns#"
   xmlns:svg="http://www.w3.org/2000/svg"
   xmlns="http://www.w3.org/2000/svg"
   xmlns:xlink="http://www.w3.org/1999/xlink"
   xmlns:sodipodi="http://sodipodi.sourceforge.net/DTD/sodipodi-0.dtd"
   xmlns:inkscape="http://www.inkscape.org/namespaces/inkscape"
   id="svg4155"
   version="1.1"
   inkscape:version="0.92.0 r"
   xml:space="preserve"
   width="10215.171"
   height="795.06927"
   viewBox="0 0 9576.7225 745.37745"
   sodipodi:docname="logo_small_horizontal6.svg"><metadata
     id="metadata4161"><rdf:RDF><cc:Work
         rdf:about=""><dc:format>image/svg+xml</dc:format><dc:type
           rdf:resource="http://purl.org/dc/dcmitype/StillImage" /><dc:title /></cc:Work></rdf:RDF></metadata><defs
     id="defs4159"><radialGradient
       fx="0"
       fy="0"
       cx="0"
       cy="0"
       r="0.5"
       gradientUnits="userSpaceOnUse"
       gradientTransform="matrix(-1034.4929,16.68037,-265.37844,1290.1332,6484.4947,1200.4512)"
       spreadMethod="pad"
       id="radialGradient4249"><stop
         style="stop-opacity:1;stop-color:#ffff00"
         offset="0"
         id="stop4251" /><stop
         style="stop-opacity:1;stop-color:#002468"
         offset="1"
         id="stop4253" /></radialGradient><radialGradient
       fx="1.5543122e-14"
       fy="6.6613381e-16"
       cx="1.5543122e-14"
       cy="6.6613381e-16"
       r="0.5"
       gradientUnits="userSpaceOnUse"
       gradientTransform="matrix(1012.4374,-209.38853,540.39709,1201.1326,2913.0279,897.18814)"
       spreadMethod="pad"
       id="radialGradient4283"><stop
         style="stop-opacity:1;stop-color:#ffff00"
         offset="0"
         id="stop4285" /><stop
         style="stop-opacity:1;stop-color:#002468"
         offset="1"
         id="stop4287" /></radialGradient><radialGradient
       fx="0"
       fy="0"
       cx="0"
       cy="0"
       r="0.5"
       gradientUnits="userSpaceOnUse"
       gradientTransform="matrix(-1144.2255,18.44972,-293.52816,1426.9827,3390.3022,2381.633)"
       spreadMethod="pad"
       id="radialGradient4405"><stop
         style="stop-opacity:1;stop-color:#ffff00"
         offset="0"
         id="stop4407" /><stop
         style="stop-opacity:1;stop-color:#002468"
         offset="1"
         id="stop4409" /></radialGradient><radialGradient
       fx="0"
       fy="0"
       cx="0"
       cy="0"
       r="0.5"
       gradientUnits="userSpaceOnUse"
       gradientTransform="matrix(1144.2255,18.44972,293.52816,1426.9827,1078.2986,2381.633)"
       spreadMethod="pad"
       id="radialGradient4427"><stop
         style="stop-opacity:1;stop-color:#ffff00"
         offset="0"
         id="stop4429" /><stop
         style="stop-opacity:1;stop-color:#002468"
         offset="1"
         id="stop4431" /></radialGradient><radialGradient
       inkscape:collect="always"
       xlink:href="#radialGradient4405"
       id="radialGradient4736"
       cx="3151.2917"
       cy="-691.98151"
       fx="3151.2917"
       fy="-691.98151"
       r="493.21069"
       gradientTransform="matrix(0.5818303,-0.00524473,-0.0101304,0.39374941,-1322.114,-2322.4485)"
       gradientUnits="userSpaceOnUse" /><radialGradient
       id="radialGradient4249-6"
       spreadMethod="pad"
       gradientTransform="matrix(-1034.4929,16.68037,-265.37844,1290.1332,6484.4947,1200.4512)"
       gradientUnits="userSpaceOnUse"
       r="0.5"
       cy="0"
       cx="0"
       fy="0"
       fx="0"><stop
         id="stop4251-7"
         offset="0"
         style="stop-opacity:1;stop-color:#ffff00" /><stop
         id="stop4253-2"
         offset="1"
         style="stop-opacity:1;stop-color:#002468" /></radialGradient><radialGradient
       id="radialGradient4283-0"
       spreadMethod="pad"
       gradientTransform="matrix(1012.4374,-209.38853,540.39709,1201.1326,2913.0279,897.18814)"
       gradientUnits="userSpaceOnUse"
       r="0.5"
       cy="6.6613381e-16"
       cx="1.5543122e-14"
       fy="6.6613381e-16"
       fx="1.5543122e-14"><stop
         id="stop4285-7"
         offset="0"
         style="stop-opacity:1;stop-color:#ffff00" /><stop
         id="stop4287-3"
         offset="1"
         style="stop-opacity:1;stop-color:#002468" /></radialGradient><radialGradient
       id="radialGradient4405-2"
       spreadMethod="pad"
       gradientTransform="matrix(-1144.2255,18.44972,-293.52816,1426.9827,3390.3022,2381.633)"
       gradientUnits="userSpaceOnUse"
       r="0.5"
       cy="0"
       cx="0"
       fy="0"
       fx="0"><stop
         id="stop4407-2"
         offset="0"
         style="stop-opacity:1;stop-color:#ffff00" /><stop
         id="stop4409-7"
         offset="1"
         style="stop-opacity:1;stop-color:#002468" /></radialGradient><radialGradient
       id="radialGradient4427-6"
       spreadMethod="pad"
       gradientTransform="matrix(1144.2255,18.44972,293.52816,1426.9827,1078.2986,2381.633)"
       gradientUnits="userSpaceOnUse"
       r="0.5"
       cy="0"
       cx="0"
       fy="0"
       fx="0"><stop
         id="stop4429-4"
         offset="0"
         style="stop-opacity:1;stop-color:#ffff00" /><stop
         id="stop4431-41"
         offset="1"
         style="stop-opacity:1;stop-color:#002468" /></radialGradient><radialGradient
       fx="0"
       fy="0"
       cx="0"
       cy="0"
       r="0.5"
       gradientUnits="userSpaceOnUse"
       gradientTransform="matrix(-1034.4929,16.68037,-265.37844,1290.1332,6484.4947,1200.4512)"
       spreadMethod="pad"
       id="radialGradient4249-4"><stop
         style="stop-opacity:1;stop-color:#ffff00"
         offset="0"
         id="stop4251-4" /><stop
         style="stop-opacity:1;stop-color:#002468"
         offset="1"
         id="stop4253-0" /></radialGradient><radialGradient
       fx="1.5543122e-14"
       fy="6.6613381e-16"
       cx="1.5543122e-14"
       cy="6.6613381e-16"
       r="0.5"
       gradientUnits="userSpaceOnUse"
       gradientTransform="matrix(1012.4374,-209.38853,540.39709,1201.1326,2913.0279,897.18814)"
       spreadMethod="pad"
       id="radialGradient4283-6"><stop
         style="stop-opacity:1;stop-color:#ffff00"
         offset="0"
         id="stop4285-3" /><stop
         style="stop-opacity:1;stop-color:#002468"
         offset="1"
         id="stop4287-5" /></radialGradient><radialGradient
       fx="0"
       fy="0"
       cx="0"
       cy="0"
       r="0.5"
       gradientUnits="userSpaceOnUse"
       gradientTransform="matrix(-1144.2255,18.44972,-293.52816,1426.9827,3390.3022,2381.633)"
       spreadMethod="pad"
       id="radialGradient4405-0"><stop
         style="stop-opacity:1;stop-color:#ffff00"
         offset="0"
         id="stop4407-1" /><stop
         style="stop-opacity:1;stop-color:#002468"
         offset="1"
         id="stop4409-6" /></radialGradient><radialGradient
       fx="0"
       fy="0"
       cx="0"
       cy="0"
       r="0.5"
       gradientUnits="userSpaceOnUse"
       gradientTransform="matrix(1144.2255,18.44972,293.52816,1426.9827,1078.2986,2381.633)"
       spreadMethod="pad"
       id="radialGradient4427-8"><stop
         style="stop-opacity:1;stop-color:#ffff00"
         offset="0"
         id="stop4429-3" /><stop
         style="stop-opacity:1;stop-color:#002468"
         offset="1"
         id="stop4431-4" /></radialGradient></defs><sodipodi:namedview
     pagecolor="#ffffff"
     bordercolor="#666666"
     borderopacity="1"
     objecttolerance="10"
     gridtolerance="10"
     guidetolerance="10"
     inkscape:pageopacity="0"
     inkscape:pageshadow="2"
     inkscape:window-width="1440"
     inkscape:window-height="801"
     id="namedview4157"
     showgrid="false"
     inkscape:zoom="0.072544256"
     inkscape:cx="4559.0021"
     inkscape:cy="-277.15355"
     inkscape:window-x="0"
     inkscape:window-y="28"
     inkscape:window-maximized="0"
     inkscape:current-layer="g4163"
     fit-margin-top="0"
     fit-margin-left="0"
     fit-margin-right="0"
     fit-margin-bottom="0" /><g
     id="g4163"
     inkscape:groupmode="layer"
     inkscape:label="Zibenitis_Stokholma_tkrekli"
     transform="matrix(1.25,0,0,-1.25,-297.38575,3566.8124)"><path
       d="M 599.66834,2829.3477 H 1538.899 v -42.0741 H 599.66834 Z"
       style="fill:none;stroke:#818181;stroke-width:0.56690001;stroke-linecap:butt;stroke-linejoin:miter;stroke-miterlimit:22.92558479;stroke-dasharray:none;stroke-opacity:1"
       id="path4293"
       inkscape:connector-curvature="0" /><rect
       style="opacity:1;fill:url(#radialGradient4736);fill-opacity:1;fill-rule:evenodd;stroke:none;stroke-width:1;stroke-miterlimit:4;stroke-dasharray:none;stroke-dashoffset:0;stroke-opacity:1"
       id="rect4728"
       width="7661.3779"
       height="596.30194"
       x="237.9086"
       y="-2853.45"
       transform="scale(1,-1)" /><path
       d="m 660.0529,2469.1762 c 0,-2e-4 -3e-4,0 0,-2e-4 -2.0075,-0.9709 -4.0147,-1.942 -6.0219,-2.9126 -0.9712,2.0072 -1.9423,4.0144 -2.9132,6.0219 2.0075,0.9709 4.0144,1.9417 6.0219,2.9129 -0.4856,1.0034 -0.9708,2.0072 -1.4564,3.0106 -2.0075,-0.9708 -4.0147,-1.9417 -6.0217,-2.9123 -0.9711,2.0072 -1.9423,4.0142 -2.9131,6.0214 2.0075,0.9709 4.0144,1.942 6.0219,2.9132 -0.4856,1.0034 -0.9709,2.0069 -1.4564,3.0106 -1.0035,-0.4855 -2.0073,-0.9708 -3.011,-1.4564 -1.3099,-0.6336 -2.6198,-1.2671 -3.9297,-1.9006 -0.6973,-0.3376 -1.3949,-0.6747 -2.0922,-1.012 -3e-4,-3e-4 -3e-4,0 0,0 0.9706,-2.0075 1.9417,-4.0147 2.9126,-6.0219 0.9708,-2.0072 1.942,-4.0147 2.9131,-6.0222 0.9709,-2.0072 1.9418,-4.0147 2.9126,-6.022 0.9712,-2.0075 1.9421,-4.0147 2.9132,-6.0219 0.9709,-2.0072 1.9417,-4.0144 2.9129,-6.0219 0.9708,-2.0072 1.9417,-4.0147 2.9129,-6.0219 -2.0075,-0.9709 -4.0147,-1.942 -6.022,-2.9126 -2.0075,-0.9712 -4.0149,-1.9423 -6.0222,-2.9132 -1.5122,-0.7316 -3.0245,-1.4629 -4.5368,-2.1946 -0.4952,-0.2395 -0.9902,-0.479 -1.4851,-0.7183 -1.0037,-0.4855 -2.0075,-0.9708 -3.0109,-1.4567 -0.9709,2.0075 -1.9421,4.0147 -2.9126,6.0222 -0.9712,2.0072 -1.9423,4.0147 -2.9129,6.0219 -0.9715,2.0072 -1.942,4.0147 -2.9132,6.022 -0.9711,2.0072 -1.942,4.0147 -2.9129,6.0219 2.0072,0.9708 4.0145,1.9417 6.0219,2.9126 -2e-4,0 -2e-4,3e-4 -2e-4,3e-4 2.0075,0.9711 4.0147,1.942 6.0222,2.9128 0.9708,-2.0075 1.9417,-4.015 2.9129,-6.0222 -2.0073,-0.9705 -4.0145,-1.9417 -6.022,-2.9126 0.4856,-1.0037 0.9709,-2.0072 1.4568,-3.0109 2.0069,0.9706 4.0141,1.9417 6.0216,2.9126 0.9709,-2.0072 1.942,-4.0144 2.9129,-6.0217 -2.0072,-0.9711 -4.0144,-1.9423 -6.0219,-2.9131 0.4855,-1.0035 0.9708,-2.007 1.4564,-3.0107 0.3155,0.1528 0.6313,0.3053 0.9471,0.4578 0.6879,0.3331 1.3759,0.6658 2.0639,0.9989 2.0072,0.9706 4.0144,1.9415 6.0219,2.9123 -0.9709,2.0075 -1.942,4.015 -2.9126,6.0222 -0.9712,2.0073 -1.942,4.0147 -2.9132,6.022 -0.9709,2.0075 -1.9417,4.0144 -2.9129,6.0219 -0.9711,2.0072 -1.942,4.0147 -2.9129,6.0219 -0.9708,2.0072 -1.9417,4.0147 -2.9128,6.0222 -0.9709,2.0072 -1.9418,4.0144 -2.9126,6.0219 2.0072,0.9712 4.0144,1.9418 6.0219,2.9129 0.6834,0.3305 1.3671,0.6611 2.0506,0.9919 1.3238,0.6403 2.6475,1.2806 3.9713,1.9207 1.6614,0.8039 3.3231,1.6075 4.9847,2.4112 0.3456,0.1675 0.6914,0.3347 1.0375,0.5017 1.0035,0.4856 2.0072,0.9711 3.011,1.4567 0.9708,-2.0075 1.9417,-4.0147 2.9126,-6.0219 0.9708,-2.0075 1.942,-4.015 2.9129,-6.0222 0.9708,-2.0072 1.942,-4.0144 2.9131,-6.0216 0.9712,-2.0073 1.942,-4.0148 2.9126,-6.022 -2.0072,-0.9711 -4.0144,-1.942 -6.0216,-2.9129"
       style="fill:#105251;fill-opacity:1;fill-rule:evenodd;stroke:none"
       id="path4625"
       inkscape:connector-curvature="0" /><path
       d="m 433.9998,2338.5819 c 3e-4,2e-4 3e-4,5e-4 0,8e-4 2.6657,2.5824 5.3311,5.1653 7.9968,7.7482 2.583,-2.6657 5.1659,-5.3311 7.7488,-7.9971 -2.6657,-2.5823 -5.3311,-5.1653 -7.9968,-7.7479 1.2915,-1.3329 2.5829,-2.6654 3.8747,-3.9983 2.6651,2.5827 5.3308,5.1656 7.9965,7.7482 2.5827,-2.6654 5.1656,-5.3308 7.7482,-7.9959 -2.6651,-2.5832 -5.3305,-5.1662 -7.9959,-7.7491 1.2911,-1.3326 2.5826,-2.6651 3.8738,-3.9977 1.3328,1.2915 2.6657,2.5829 3.9985,3.8744 1.7394,1.6855 3.4787,3.371 5.2181,5.0562 0.926,0.8974 1.8521,1.7946 2.7785,2.692 0,0 3e-4,3e-4 3e-4,0 -2.583,2.666 -5.1656,5.3311 -7.7488,7.9968 -2.5827,2.6655 -5.1659,5.3312 -7.7488,7.9966 -2.5827,2.6654 -5.1656,5.3311 -7.7485,7.9965 -2.5829,2.6657 -5.1659,5.3308 -7.7488,7.996 -2.5829,2.666 -5.1659,5.3314 -7.7488,7.9968 -2.5829,2.6654 -5.1659,5.3311 -7.7488,7.9965 2.6654,2.583 5.3311,5.1656 7.9966,7.7485 2.6657,2.583 5.3311,5.1659 7.9965,7.7491 2.0083,1.9457 4.0167,3.8917 6.0247,5.8377 0.6574,0.6369 1.3148,1.2739 1.9721,1.9108 1.3329,1.2918 2.6654,2.5832 3.9983,3.8741 2.5829,-2.6651 5.1656,-5.3308 7.7482,-7.9962 2.5832,-2.6655 5.1661,-5.3312 7.7488,-7.9969 2.5832,-2.6651 5.1661,-5.3305 7.7491,-7.9956 2.5826,-2.6657 5.1655,-5.3314 7.7482,-7.9969 -2.6652,-2.5826 -5.3306,-5.1655 -7.9963,-7.7482 3e-4,-3e-4 3e-4,-3e-4 0,-8e-4 -2.6654,-2.5824 -5.3308,-5.1656 -7.9965,-7.7483 -2.5829,2.6655 -5.1659,5.3315 -7.7488,7.9969 2.6657,2.5826 5.3314,5.1655 7.9965,7.7482 -1.2911,1.3328 -2.5826,2.6654 -3.8741,3.9983 -2.6657,-2.5827 -5.3311,-5.1656 -7.9968,-7.7485 -2.5826,2.6654 -5.1656,5.3308 -7.7482,7.9959 2.6654,2.5835 5.3305,5.1662 7.996,7.7491 -1.2915,1.3328 -2.5827,2.6654 -3.8739,3.998 -0.4192,-0.4059 -0.8382,-0.8121 -1.2574,-1.2184 -0.9136,-0.8852 -1.8272,-1.7708 -2.7408,-2.6563 -2.6657,-2.5824 -5.3314,-5.1653 -7.9969,-7.7479 2.5833,-2.6657 5.1662,-5.3312 7.7488,-7.9969 2.5832,-2.6654 5.1659,-5.3308 7.7485,-7.9965 2.583,-2.6654 5.1659,-5.3308 7.7491,-7.9962 2.5827,-2.6655 5.1656,-5.3312 7.7488,-7.9966 2.5826,-2.6657 5.1656,-5.3311 7.7482,-7.9965 2.5832,-2.6657 5.1659,-5.3311 7.7488,-7.9968 -2.6654,-2.5827 -5.3311,-5.1653 -7.9965,-7.7483 -0.908,-0.8798 -1.8156,-1.7594 -2.7236,-2.639 -1.7577,-1.7033 -3.5155,-3.4067 -5.2733,-5.1097 -2.2062,-2.1379 -4.4126,-4.2761 -6.6189,-6.414 -0.4592,-0.445 -0.9184,-0.8901 -1.3776,-1.3351 -1.3326,-1.2915 -2.6654,-2.5827 -3.998,-3.8741 -2.5829,2.6651 -5.1655,5.3308 -7.7485,7.9962 -2.5829,2.6657 -5.1658,5.3314 -7.749,7.9968 -2.583,2.6655 -5.1659,5.3309 -7.7488,7.9963 -2.5827,2.6654 -5.1656,5.3311 -7.7483,7.9963 2.6655,2.5829 5.3306,5.1658 7.996,7.7485"
       style="fill:#cfd900;fill-opacity:1;fill-rule:evenodd;stroke:none"
       id="path4627"
       inkscape:connector-curvature="0" /><path
       d="m 281.0449,2562.3425 h 8.0875 8.0878 v 8.0879 8.0875 h -8.0878 -8.0875 v 8.0878 h 8.0875 8.0878 v 8.0878 8.0875 h -8.0878 -8.0875 v 8.0878 h 8.0875 8.0878 8.0878 v -8.0878 -8.0875 -8.0878 h 8.0876 v 8.0878 8.0875 8.0878 h 8.0878 8.0875 8.0878 v -8.0878 h -8.0878 -8.0875 v -8.0875 -8.0878 h 8.0875 8.0878 v -8.0878 h -8.0878 -8.0875 v -8.0875 -8.0879 h 8.0875 8.0878 v -8.0875 h -8.0878 -8.0875 -8.0878 v 8.0875 8.0879 8.0875 h -8.0876 v -8.0875 -8.0879 -8.0875 h -8.0878 -8.0878 -8.0875 z"
       style="fill:#aebf00;fill-opacity:1;fill-rule:evenodd;stroke:none"
       id="path4629"
       inkscape:connector-curvature="0" /><path
       d="m 870.1906,2388.9444 -8.4683,-21.8392 -27.0374,10.4842 8.468,21.8384 -5.7204,2.2181 -8.4679,-21.8389 -27.0371,10.4842 8.4676,21.8387 -5.7206,2.2181 -8.4682,-21.8381 -21.8384,8.4676 -2.2181,-5.7203 21.8384,-8.4679 -10.4834,-27.038 -21.8389,8.4682 -2.2179,-5.7203 21.8381,-8.468 -10.483,-27.0377 -21.8393,8.4683 -2.2181,-5.7204 27.5593,-10.686 12.702,32.758 32.7578,-12.7023 12.7023,32.7577 32.7574,-12.7017 10.6864,27.5589 z m -53.9283,-41.8949 -27.0377,10.4842 10.4845,27.0372 27.0374,-10.4837 z"
       style="fill:#ecf000;fill-opacity:1;fill-rule:evenodd;stroke:none"
       id="path4631"
       inkscape:connector-curvature="0" /><path
       d="m 627.0996,2768.6758 1.7815,-4.8424 1.7816,-4.8424 1.7816,-4.8427 1.7818,-4.8427 4.8425,1.7818 4.8424,1.7816 4.8427,1.7816 4.8424,1.7816 4.8425,1.7815 -1.7813,4.8427 -4.8427,-1.7818 -4.8428,-1.7816 -4.8424,-1.7813 -4.8424,-1.7818 -1.7816,4.8427 4.8424,1.7813 4.8425,1.7818 4.8427,1.7816 4.8424,1.7816 -1.7816,4.8424 -4.8424,-1.7813 -4.8424,-1.7819 -4.8427,-1.7815 -4.8427,-1.7816 -1.7816,4.8424 4.8427,1.7819 4.8424,1.7815 4.8427,1.7813 4.8425,1.7819 -1.7816,4.8424 -1.7816,4.8424 -1.7819,4.8428 -1.7815,4.8424 -1.7813,4.8427 -4.8427,-1.7819 1.7815,-4.8424 1.7816,-4.8427 1.7816,-4.8421 1.7816,-4.8428 -4.8425,-1.7815 -1.7815,4.8424 -1.7816,4.8427 -1.7816,4.8424 -1.7818,4.8425 -4.8425,-1.7816 1.7816,-4.8424 1.7816,-4.8428 1.7818,-4.8424 1.7816,-4.8424 -4.8424,-1.7816 -1.7819,4.8424 -1.7815,4.8425 -1.7816,4.8427 -1.7816,4.8424 -4.8427,-1.7816 -4.8424,-1.7815 -4.8424,-1.7816 -4.8425,-1.7816 -4.8427,-1.7818 1.7816,-4.8425 4.8427,1.7816 4.8424,1.7819 4.8425,1.7815 4.8427,1.7813 1.7815,-4.8424 -4.8424,-1.7816 -4.8427,-1.7816 -4.8427,-1.7815 -4.8421,-1.7816 1.7812,-4.8424 4.8428,1.7815 4.8424,1.7813 4.8427,1.7819 4.8424,1.7816 1.7816,-4.8427 -4.8427,-1.7816 -4.8422,-1.7816 -4.8427,-1.7816 -4.8427,-1.7815 1.7819,-4.8427 1.7816,-4.8425 1.7815,-4.8424 1.7816,-4.8424 1.7816,-4.8424 4.8424,1.7812 -1.7813,4.8428 -1.7818,4.8424 -1.7816,4.8424 -1.7816,4.8427 4.8424,1.7816 1.7816,-4.8424 1.7819,-4.8427 1.7815,-4.8425 1.7816,-4.8424 4.8424,1.7816 -1.7815,4.8424 -1.7816,4.8424 -1.7816,4.8427 -1.7816,4.8425 z"
       style="fill:#6f8e2a;fill-opacity:1;fill-rule:evenodd;stroke:none"
       id="path4633"
       inkscape:connector-curvature="0" /><path
       d="m 525.6717,2434.6562 3.848,-3.9571 -3.9571,-3.8481 -3.8481,3.9572 -3.848,3.9572 -3.9572,-3.8481 -3.9574,-3.848 -3.9569,-3.848 -3.9572,-3.8484 -3.8483,3.9575 -3.848,3.9572 -3.848,3.9571 -3.8481,3.9572 -3.9571,-3.848 -3.9575,-3.8481 -3.8477,3.9572 3.9568,3.848 3.9575,3.8481 -3.8483,3.9571 -3.8478,3.9575 3.9569,3.8477 3.8483,-3.9569 3.8481,-3.9574 3.9571,3.8483 3.9572,3.8477 3.9571,3.8484 3.9572,3.848 3.8483,-3.9572 3.8478,-3.9574 3.8483,-3.9569 3.848,-3.9575 3.9572,3.8484 3.9572,3.8477 3.848,-3.9569 -3.9572,-3.8483 -3.9571,-3.848 z m -27.1548,12.0901 3.8483,-3.9575 3.9572,3.8483 -3.8483,3.9569 z m -7.9143,-7.6964 3.848,-3.9571 3.9572,3.848 -3.8481,3.9572 z m 15.6107,-0.2182 3.8477,-3.9572 3.9575,3.848 -3.8484,3.9572 z m -7.9147,-7.6961 3.8484,-3.9572 3.9571,3.8481 -3.848,3.9571 z"
       style="fill:#003560;fill-opacity:1;fill-rule:evenodd;stroke:none"
       id="path4635"
       inkscape:connector-curvature="0" /><path
       d="m 346.7143,2376.3056 -0.7027,-10.5602 -10.5602,0.7027 0.703,10.5599 -10.5602,0.7027 0.7027,10.5602 10.5602,-0.7027 0.7024,10.5599 -10.5596,0.7027 0.7021,10.5599 10.5605,-0.7027 0.7027,10.5605 -10.5605,0.7027 0.7027,10.5602 10.5605,-0.7027 0.7021,10.5599 10.5605,-0.7027 -0.7027,-10.5602 10.5602,-0.7027 0.7027,10.5602 10.5599,-0.703 -0.7027,-10.5596 10.5599,-0.703 0.7027,10.5602 10.5602,-0.7027 -0.7027,-10.5602 10.5602,-0.7025 -0.7027,-10.5602 -10.5605,0.7028 -0.7021,-10.5599 10.5599,-0.703 -0.7025,-10.5602 -10.5601,0.7027 -0.7027,-10.5602 10.5599,-0.7024 -0.7028,-10.5602 -10.5599,0.703 -0.7027,-10.5602 -10.5604,0.7027 0.703,10.5599 -10.5602,0.7027 -0.7027,-10.5602 -10.56,0.703 0.7025,10.5599 z m 23.9309,40.8348 -10.5602,0.7027 -10.5596,0.7027 -0.703,-10.5602 -0.7027,-10.5602 -0.7027,-10.5602 10.5599,-0.7024 10.5602,-0.7027 10.5602,-0.7027 0.7024,10.5599 0.7027,10.5605 0.703,10.5599 z"
       style="fill:#c5d100;fill-opacity:1;fill-rule:evenodd;stroke:none"
       id="path4637"
       inkscape:connector-curvature="0" /><path
       d="m 423.0499,2452.1641 4.0838,1.3765 4.0836,1.3768 -1.3765,4.0839 -4.0839,-1.3768 -4.0838,-1.3765 -1.3768,4.0836 4.0839,1.3768 4.0838,1.3768 -1.3768,4.0838 -1.3767,4.0839 -4.0839,-1.3768 -4.0839,-1.3768 -1.3768,4.0839 4.0839,1.3768 4.0839,1.3768 -1.3768,4.0839 -4.0839,-1.3768 -4.0839,-1.3768 -1.3765,4.0839 4.0839,1.3767 4.0836,1.3768 4.0839,1.3768 1.3768,-4.0839 1.3767,-4.0838 4.0839,1.3768 4.0839,1.3765 -1.3768,4.0838 -1.3768,4.0839 4.0839,1.3768 4.0839,1.3768 4.0838,1.3768 1.3768,-4.0839 -4.0838,-1.3768 -4.0839,-1.3768 1.3768,-4.0838 4.0838,1.3767 4.0839,1.3768 1.3765,-4.0838 -4.0836,-1.3768 -4.0838,-1.3768 1.3767,-4.0839 1.3765,-4.0836 4.0839,1.3765 4.0839,1.3768 1.3768,-4.0839 -4.0839,-1.3765 -4.0839,-1.3768 1.3768,-4.0838 4.0839,1.3768 4.0839,1.3765 1.3768,-4.0836 -4.0839,-1.3768 -4.0839,-1.3768 -4.0839,-1.3768 -1.3768,4.0839 -1.3767,4.0839 -4.0839,-1.3768 -4.0836,-1.3768 1.3765,-4.0839 1.3768,-4.0839 -4.0839,-1.3768 -4.0839,-1.3765 -4.0838,-1.3768 z m 10.8283,21.8424 -4.0839,-1.3768 1.3768,-4.0839 1.3768,-4.0838 4.0839,1.3767 4.0836,1.3768 -1.3765,4.0839 -1.3768,4.0839 z"
       style="fill:#002468;fill-opacity:1;fill-rule:evenodd;stroke:none"
       id="path4639"
       inkscape:connector-curvature="0" /><path
       d="m 568.1644,2426.5177 5.3048,1.2659 5.305,1.2663 -1.2659,5.3047 -1.2663,5.3051 -5.3047,-1.266 -5.305,-1.2662 -1.2663,5.305 5.3051,1.2662 5.305,1.266 -1.2662,5.305 -1.266,5.3051 -5.305,-1.2663 -5.3051,-1.2659 -1.2659,5.305 5.305,1.266 5.3051,1.2662 5.3047,1.266 1.2662,-5.3051 1.266,-5.3047 5.305,1.2659 -1.2659,5.3051 -1.2663,5.305 5.3051,1.266 5.305,1.2662 5.3051,1.2659 1.2659,-5.305 -5.305,-1.266 -5.3048,-1.2662 1.266,-5.305 1.2662,-5.3048 5.3048,1.266 5.305,1.2659 1.2662,-5.3047 -5.305,-1.2663 -5.305,-1.2659 1.2659,-5.3051 1.2663,-5.305 5.305,1.266 5.305,1.2662 1.266,-5.3051 -5.3051,-1.2659 -5.305,-1.2662 -5.305,-1.266 -1.266,5.305 -1.2659,5.3048 -5.3051,-1.266 1.266,-5.305 1.2662,-5.305 -5.305,-1.266 -5.3051,-1.2662 -5.305,-1.266 z m 12.1167,19.7132 1.266,-5.305 5.305,1.2659 -1.2659,5.3051 z"
       style="fill:#004358;fill-opacity:1;fill-rule:evenodd;stroke:none"
       id="path4641"
       inkscape:connector-curvature="0" /><path
       d="m 720.6539,2639.2176 5.078,-3.0467 5.0786,-3.0464 -3.0467,-5.0783 -5.0783,3.0467 -5.0783,3.0461 -5.0782,3.0467 -5.0786,3.0467 3.0467,5.078 3.0467,5.0785 3.0467,5.0783 -5.0786,3.0467 -5.0783,3.0461 -5.0782,3.0466 3.0464,5.0786 3.0466,5.0783 3.0467,5.0779 3.0464,5.0786 5.0783,-3.0467 -3.0467,-5.0782 -3.0464,-5.0783 -3.0464,-5.0783 5.0783,-3.0467 5.078,-3.0464 3.0466,5.0783 3.0467,5.0783 3.0467,5.0785 3.0461,5.0783 3.0467,5.078 3.0467,5.0785 5.0779,-3.0466 -3.0463,-5.078 -3.0464,-5.0786 -3.0467,-5.0782 -3.0464,-5.0783 -3.0467,-5.0783 -3.0464,-5.0782 5.0783,-3.0467 5.0785,-3.0467 5.078,-3.0464 5.0783,-3.0464 5.0785,-3.0467 5.078,-3.0464 -3.0464,-5.0782 -5.0782,3.0464 -5.0783,3.0464 -5.0783,3.0466 -5.0782,3.0467 -5.0783,3.0464 -5.0786,3.0464 -3.0464,-5.0783 -3.0463,-5.0782 z"
       style="fill:#4f783b;fill-opacity:1;fill-rule:evenodd;stroke:none"
       id="path4643"
       inkscape:connector-curvature="0" /><path
       d="m 712.9576,2512.1044 3.501,5.237 3.5006,5.2373 -5.2371,3.5011 -5.237,3.5008 -3.501,-5.2373 -5.2373,3.501 3.501,5.2371 3.5008,5.2372 5.2373,-3.501 5.237,-3.5008 5.2373,-3.5008 5.2373,-3.5011 -3.5011,-5.237 -3.501,-5.237 -3.5005,-5.2373 -3.5011,-5.2373 -5.2373,3.5011 -5.237,3.5008 -5.237,3.5008 -3.5011,-5.237 -3.5008,-5.2373 -3.5008,-5.2373 -5.2372,3.5011 -5.2373,3.501 -5.237,3.5005 -5.2371,3.5011 3.5005,5.2373 3.5011,5.237 3.5011,5.237 3.5008,5.2373 5.237,-3.5011 5.2373,-3.5005 -3.5011,-5.2373 -5.237,3.5011 -3.5008,-5.2373 -3.5011,-5.2373 5.2373,-3.5011 5.2373,-3.5005 3.5005,5.2371 3.5011,5.237 3.5011,5.2373 5.2367,-3.5008 5.2373,-3.5011 z"
       style="fill:#2b5f4a;fill-opacity:1;fill-rule:evenodd;stroke:none"
       id="path4645"
       inkscape:connector-curvature="0" /><path
       d="m 552.6232,2773.1841 5.4369,0.4062 5.4368,0.4059 -0.4059,5.4368 -5.4369,-0.4059 -5.4368,-0.4059 -0.4059,5.4371 -0.4059,5.4369 -0.4057,5.4368 -5.4368,-0.4059 -5.4372,-0.4056 -5.4368,-0.4062 -0.4059,5.4371 -0.406,5.4371 -5.4368,-0.4059 0.4059,-5.4371 0.4056,-5.4369 -5.4368,-0.4059 -0.4059,5.4369 -0.4057,5.4368 -0.4059,5.4371 5.4371,0.406 5.4366,0.4059 5.4371,0.4056 0.4057,-5.4368 0.4062,-5.4369 5.4366,0.4057 5.4371,0.4059 -0.4059,5.4371 -5.4369,-0.4062 -2.6583,-0.1984 h -0.06 l -0.4059,5.4369 0.1111,0.01 2.6073,0.1947 5.4368,0.4057 5.4369,0.4062 0.4059,-5.4371 0.4059,-5.4369 5.4369,0.4059 5.4368,0.4057 0.406,-5.4369 0.4059,-5.4368 0.1947,-2.6076 0.01,-0.1109 -5.4368,-0.4059 v 0.06 l -0.1985,2.6583 -0.4059,5.4372 -5.4368,-0.4059 0.4056,-5.4372 0.4062,-5.4368 5.4369,0.4059 5.4368,0.4059 0.4056,-5.4371 0.4062,-5.4369 0.4057,-5.4368 -5.4369,-0.4059 -5.4371,-0.406 -5.4368,-0.4056 -0.4057,5.4366 z"
       style="fill:#7c991f;fill-opacity:1;fill-rule:evenodd;stroke:none"
       id="path4647"
       inkscape:connector-curvature="0" /><path
       d="m 307.4746,2460.9742 -4.9258,-8.0266 -8.0266,4.9258 4.9258,8.0266 -8.0266,4.9257 4.926,8.026 8.0263,-4.9252 4.9255,8.0261 4.9261,8.0265 -8.0266,4.9258 -8.026,4.9255 -4.9261,-8.0263 -8.0263,4.9255 4.9258,8.0266 -8.0266,4.9257 4.9258,8.0266 8.0265,-4.9258 4.9255,8.0263 8.0266,-4.9257 -4.926,-8.0266 8.0265,-4.9258 8.0266,-4.9255 4.9258,8.0263 4.9255,8.0266 -8.026,4.9258 4.9252,8.0266 8.0265,-4.9261 4.9258,8.0266 8.0263,-4.9258 -4.9255,-8.0265 8.0263,-4.9258 -4.9257,-8.026 -8.0263,4.9252 -4.9261,-8.026 -4.9252,-8.0266 8.026,-4.9258 8.0266,-4.9255 4.9258,8.0263 8.026,-4.9257 -4.9252,-8.0263 8.026,-4.9261 -4.9255,-8.0263 -8.0266,4.9258 -4.9257,-8.0266 -8.026,4.9261 4.9254,8.0263 -8.0263,4.926 -8.0263,4.9252 -4.926,-8.026 -4.9258,-8.0266 8.0266,-4.9258 -4.9257,-8.0265 z"
       style="fill:#bac800;fill-opacity:1;fill-rule:evenodd;stroke:none"
       id="path4649"
       inkscape:connector-curvature="0" /><path
       d="m 743.8566,2590.9722 5.9854,3.5654 3.5654,-5.9854 1.783,-2.9928 -5.9856,-3.5654 -1.7828,2.9928 -5.985,-3.5651 3.5654,-5.9854 2.9925,1.7828 3.5654,-5.9854 -2.9925,-1.7827 -5.9853,-3.5654 -3.5655,5.985 -3.5657,5.9857 -5.985,-3.5657 3.5654,-5.9851 3.5654,-5.9853 -3.5371,-2.107 -2.448,-1.4585 h -3e-4 l -2.9925,-1.7827 -3.5654,5.9854 2.9928,1.7827 -3.5657,5.9853 -5.9853,-3.5654 1.7827,-2.9928 -5.9854,-3.5654 -1.7827,2.9928 -1.7827,2.9925 -1.7824,2.9929 5.985,3.5654 5.9854,3.5651 -3.5654,5.9854 -5.9851,-3.5654 -5.9853,-3.5652 -3.5655,5.9851 -1.7827,2.9925 5.9854,3.5657 1.7827,-2.9928 5.9853,3.5654 -3.5657,5.9851 -2.9925,-1.7827 -3.5654,5.9853 2.9925,1.7828 5.9854,3.5654 3.5657,-5.9854 3.5651,-5.9853 5.9854,3.5657 -3.5654,5.9853 -3.5655,5.9854 2.0637,1.2291 3.9214,2.336 2.9928,1.7827 3.5654,-5.9853 -2.9925,-1.7825 3.5654,-5.9853 5.9851,3.5654 -1.7824,2.9922 5.9853,3.5657 1.7825,-2.9928 h 2e-4 l 1.1999,-2.0148 2.3653,-3.9702 -5.9854,-3.5655 -5.9851,-3.5654 3.5652,-5.9853 z m -17.9557,-10.6963 5.9853,3.5655 -3.5654,5.9853 -5.9854,-3.5654 z"
       style="fill:#3d6c42;fill-opacity:1;fill-rule:evenodd;stroke:none"
       id="path4651"
       inkscape:connector-curvature="0" /><path
       d="m 459.5737,2794.5953 -2.8273,5.0442 -3e-4,-3e-4 -2.8272,5.0446 h 3e-4 l 5.0442,2.827 3e-4,3e-4 5.0442,2.8272 5.0443,2.8273 5.0442,2.8276 2.8276,-5.0446 2.8273,-5.0445 2.8273,-5.0443 h 2e-4 l 2.827,-5.0442 h -3e-4 l -5.0439,-2.8273 h -3e-4 l -5.0443,-2.8273 -5.0442,-2.8275 -1.4774,-0.828 -1.4877,-5.2818 -1.5675,-5.5664 -1.5679,-5.5661 -1.4331,-5.0885 0.828,-1.4774 2.8275,-5.0445 2.827,-5.0443 h 3e-4 l 2.8273,-5.0443 -7.8716,2.217 -2.8275,5.0443 -2.8273,5.0445 -5.0445,-2.8275 -5.0443,-2.8273 -7.8715,2.217 5.0442,2.8272 3e-4,3e-4 5.044,2.8273 5.0442,2.8273 1.4777,0.8282 1.4332,5.0885 1.5676,5.5661 1.5678,5.5661 1.4877,5.2818 -0.8283,1.4777 z m 7.2612,10.6985 -5.0439,-2.827 2.827,-5.0443 2.8275,-5.0445 5.0443,2.8276 5.0442,2.827 h 3e-4 l -2.8276,5.0442 -2.8272,5.0446 z"
       style="fill:#89a312;fill-opacity:1;fill-rule:evenodd;stroke:none"
       id="path4653"
       inkscape:connector-curvature="0" /><path
       d="m 543.8168,2357.7134 v 0 l -3.5161,35.6089 19.7944,-16.2369 16.2385,19.7946 3.5161,-35.6082 36.0309,3.5577 -16.238,-19.7951 19.7961,-16.2383 -36.0326,-3.5578 3.5161,-35.6082 -19.7961,16.2382 -16.2374,-19.796 -3.5158,35.608 -36.0323,-3.5578 16.2377,19.7955 -19.7949,16.236 36.0323,3.5589 -3e-4,5e-4 z m 18.0845,-33.4624 -0.667,6.7567 -0.6673,6.7564 -6.7564,-0.667 -6.7563,-0.6673 0.667,-6.7564 -6.757,-0.6673 -0.667,6.7567 -6.7566,-0.6673 -0.667,6.757 6.7563,0.667 -0.6669,6.7566 6.7569,0.667 0.667,-6.7564 6.7564,0.667 6.7566,0.6673 -0.6672,6.7564 -0.667,6.7566 -6.7567,-0.6672 -0.667,6.7569 6.7564,0.6673 -0.667,6.7564 6.7569,0.6672 0.667,-6.7566 6.7567,0.6673 0.667,-6.757 -6.7564,-0.6673 0.667,-6.7563 0.6673,-6.7564 6.7564,0.667 6.7566,0.6672 -0.6673,6.7564 6.757,0.6673 0.6673,-6.7567 6.7563,0.6673 0.6673,-6.7569 -6.7566,-0.6673 0.6672,-6.7564 -6.7569,-0.6673 -0.6673,6.7567 -6.7564,-0.6673 -6.7566,-0.667 0.6672,-6.7566 0.667,-6.7564 6.7567,0.667 0.667,-6.757 -6.7564,-0.6669 0.667,-6.7567 -6.7569,-0.667 -0.667,6.7564 -6.7564,-0.667 -0.6673,6.7569 z"
       style="fill:#dae100;fill-opacity:1;fill-rule:evenodd;stroke:none"
       id="path4655"
       inkscape:connector-curvature="0" /><path
       d="m 701.7097,2304.4663 5.055,5.9063 -17.7701,3.3276 -8.9677,-9.2577 -2.6197,1.3553 3.2828,17.5288 0.2256,0.4709 22.9714,26.7928 1.0026,0.3532 11.039,-2.0676 0.8067,-0.692 1.8655,-5.2968 1.8643,-5.2974 -0.1958,-1.0448 -7.31,-8.5258 -1.0026,-0.3529 -11.0393,2.0667 -0.807,0.692 -0.724,2.0562 -5.0635,-5.906 0.9281,-2.6353 19.8918,-3.7253 13.172,15.3643 -6.7195,19.0902 -19.8918,3.7253 -6.5866,-7.6819 -8.0691,-9.413 -2.7457,1.3156 1.4548,7.7683 0.2285,0.4743 14.1672,16.3899 0.9995,0.3498 17.0139,-3.1862 -2.5816,7.3321 -16.0378,2.9464 -7.9914,-9.3209 -2.7454,1.3155 1.6693,8.9144 0.2245,0.4695 16.5444,19.3597 -1.9848,5.639 -2.0664,-2.4106 -1.012,-0.3518 -6.0605,1.1841 -0.9178,1.3521 1.7552,9.3739 -6.6206,1.2399 -1.7558,-9.3742 -1.3453,-0.9284 -6.2694,1.1254 -0.8158,0.6945 -1.0539,2.9945 -3.8875,-4.5346 8.5799,-24.1999 0.041,-0.523 -1.7068,-9.1154 -3.0353,-0.233 -4.2066,11.9475 -16.0172,3.0571 -5.0596,-5.9017 17.0088,-3.1853 0.8008,-0.6772 7.4851,-20.3799 0.045,-0.5341 -1.5287,-8.1629 -3.0356,-0.233 -4.2449,12.0617 -3.3608,9.5451 -19.8915,3.7253 -6.5863,-7.6819 -6.5861,-7.6833 6.7201,-19.0897 19.8913,-3.725 1.819,2.1209 -2.5832,7.3378 -1.419,-1.6543 -1.0026,-0.3532 -11.0393,2.0673 -0.807,0.6919 -3.7293,10.5937 0.1953,1.0451 3.6553,4.2639 3.6553,4.2624 1.0026,0.3529 11.039,-2.067 0.8067,-0.6919 11.8488,-33.6566 0.04,-0.5205 -3.2749,-17.4869 -2.933,-0.3149 -5.1466,12.2 -17.7704,3.3279 2.5756,-7.3355 11.8284,-2.215 0.6611,-0.4312 8.996,-13.1422 0.1627,-0.7719 -1.6776,-8.9586 6.6212,-1.2399 1.7138,9.1508 0.4309,0.6599 12.9147,8.8407 0.7721,0.1624 11.8287,-2.2147 z"
       style="fill:#e3e900;fill-opacity:1;fill-rule:evenodd;stroke:none"
       id="path4657"
       inkscape:connector-curvature="0" /><path
       d="m 701.2159,2713.1361 -0.5116,-19.1614 -9.0154,9.5102 0.5114,19.1611 z m -12.5589,-9.5707 -9.5105,-9.0153 0.5114,19.1605 9.5105,9.0159 z m -11.086,12.3461 -19.4128,0.5181 9.5117,9.0165 19.4122,-0.5182 z m -9.8221,12.5665 -9.0153,9.5097 19.414,-0.5182 9.0153,-9.5097 z m 12.5998,11.0784 0.5113,19.1599 9.0153,-9.5097 -0.5113,-19.1599 z m 12.5583,9.5675 9.5111,9.017 -0.5114,-19.1591 -9.5111,-9.0164 z m 11.0857,-12.3438 19.4145,-0.5181 -9.5102,-9.0159 -19.4145,0.5181 z m 9.8226,-12.5657 9.0162,-9.5096 -19.4139,0.5173 -9.0159,9.5105 z"
       style="fill:#5f8432;fill-opacity:1;fill-rule:evenodd;stroke:none"
       id="path4659"
       inkscape:connector-curvature="0" /><path
       d="m 381.7528,2739.2196 2e-4,-3e-4 0.4754,2.3443 0.8306,-1.2532 2.8369,-4.2798 2.8366,-4.2797 2.8366,-4.28 2.8367,-4.2798 4.2797,2.8369 -2.8366,4.2798 -2.8366,4.2797 -2.8367,4.2798 -2.8369,4.2797 -0.8305,1.2532 5.032,-1.0205 5.0321,-1.0204 -1.0205,-5.0321 5.0321,-1.0202 1.0204,5.0321 5.0324,-1.0205 -1.0205,-5.0321 -0.5105,-2.516 5.0323,-1.0205 0.51,2.5161 h 3e-4 l 1.0202,5.032 1.0204,5.0321 -5.032,1.0205 -5.0321,1.0204 -5.032,1.0205 -5.0321,1.0205 -5.0324,1.0202 1.2538,0.8311 4.2798,2.8366 4.2797,2.8367 4.2798,2.8366 4.2797,2.8369 4.2798,2.8366 -2.8367,4.2798 -4.2797,-2.8366 -4.2798,-2.8367 -4.2797,-2.8369 -4.2798,-2.8366 -4.28,-2.8367 -1.2535,-0.8308 1.0205,5.0321 1.0205,5.0323 5.032,-1.0205 1.0205,5.0321 -5.0323,1.0205 1.0207,5.032 5.0321,-1.0204 2.5157,-0.5103 1.0205,5.0324 -2.5158,0.5099 h -2e-4 l -5.0321,1.0205 -5.0321,1.0205 -1.0204,-5.0324 -1.0202,-5.032 -1.0205,-5.0318 -1.0205,-5.0324 -1.0204,-5.032 -0.8309,1.2535 -2.8369,4.2797 -2.8366,4.28 -2.8367,4.2798 -2.8366,4.2797 -2.8369,4.2798 -4.2797,-2.8366 2.8369,-4.2801 2.8366,-4.2797 2.8366,-4.2798 2.8367,-4.2797 2.8369,-4.2798 0.8308,-1.2537 -1.9111,0.3878 -3.1212,0.6326 -5.0321,1.0205 1.0205,5.0321 -5.0321,1.0205 -1.0202,-5.0321 -5.0323,1.0205 0.557,2.7467 0.4632,2.2853 0.5105,2.5158 -5.0324,1.0204 -0.5099,-2.516 -1.0205,-5.032 -1.0205,-5.0321 5.0321,-1.0205 5.0321,-1.0202 5.0323,-1.0204 5.0321,-1.0205 1.8212,-0.3694 3.2108,-0.6511 -1.2534,-0.8308 -4.2798,-2.8367 -4.2797,-2.8366 -4.2798,-2.8369 -4.2797,-2.8366 -4.2798,-2.8367 2.8366,-4.2797 4.2798,2.8366 4.2797,2.8367 4.2798,2.8366 4.2797,2.8369 4.2798,2.8366 1.2535,0.8309 -0.6585,-3.2471 -0.362,-1.7853 -1.0205,-5.0318 -5.0318,1.0202 -1.0204,-5.032 5.032,-1.0202 -1.0204,-5.0324 -5.0321,1.0205 -2.5158,0.5102 -1.0204,-5.0323 2.5157,-0.51 h 3e-4 l 5.0318,-1.0204 5.032,-1.0202 1.0208,5.0318 1.0202,5.032 1.0205,5.0324 1.0204,5.032 z"
       style="fill:#96ae00;fill-opacity:1;fill-rule:evenodd;stroke:none"
       id="path4661"
       inkscape:connector-curvature="0" /><path
       d="m 340.6314,2687.3042 -6e-4,-8e-4 24.4197,-9.8949 -17.3608,-7.3483 7.3479,-17.3622 -24.4193,9.8949 -10.0123,-24.7093 -7.3485,17.3619 -17.3622,-7.3491 10.0128,24.7102 -24.4193,9.8949 17.3622,7.3491 -7.3494,17.3616 24.4191,-9.8946 10.0125,24.7102 7.3491,-17.3619 17.3605,7.3491 -10.012,-24.7105 z m -28.0066,-0.3382 4.6335,-1.8773 4.6335,-1.8774 1.8774,4.6335 1.8777,4.6332 -4.6335,1.8777 1.8777,4.6335 4.6332,-1.8774 1.8777,4.6335 4.6335,-1.8776 -1.8774,-4.6336 4.6335,-1.8773 -1.8777,-4.6338 -4.6335,1.8773 -1.8774,-4.6332 -1.8774,-4.6335 4.6333,-1.8774 4.6335,-1.8777 1.8776,4.6336 4.6336,-1.8777 -1.8774,-4.6335 4.6335,-1.8774 -1.8777,-4.6338 -4.6335,1.8777 -1.8774,-4.6335 -4.6338,1.8776 1.8774,4.6333 -4.6332,1.8776 -4.6335,1.8774 -1.8777,-4.6335 -1.8774,-4.6332 4.6335,-1.8777 -1.8776,-4.6338 -4.6336,1.8777 -1.8773,-4.6335 -4.6338,1.8776 1.8774,4.6335 -4.6333,1.8774 1.8774,4.6338 4.6335,-1.8776 1.8777,4.6335 1.8774,4.6335 -4.6335,1.8774 -4.6335,1.8776 -1.8774,-4.6335 -4.6338,1.8777 1.8776,4.6332 -4.6335,1.8777 1.8777,4.6338 4.6332,-1.8777 1.8777,4.6335 4.6338,-1.8776 z"
       style="fill:#a3b600;fill-opacity:1;fill-rule:evenodd;stroke:none"
       id="path4663"
       inkscape:connector-curvature="0" /><path
       d="m 957.7726,2498.1823 35.9175,-1.686 -7.0778,-6.4429 -35.9167,1.6863 1.6858,35.917 7.0772,6.4429 z m -38.7108,-35.2392 -35.9172,1.6858 7.0773,6.4429 35.9175,-1.6861 -1.6864,-35.9172 -7.0775,-6.4426 z m -12.727,-11.5857 -35.9172,1.6857 7.077,6.4429 35.9175,-1.6863 -1.6863,-35.917 -7.0773,-6.4428 z m -12.7272,-11.5861 -35.9176,1.6861 7.0776,6.4428 35.9172,-1.6863 -1.6863,-35.9169 -7.0773,-6.4429 z m 76.8923,69.9968 35.9169,-1.6858 -7.0772,-6.4431 -35.9167,1.6863 1.6855,35.9172 7.0775,6.4426 z m 12.7273,11.5858 35.9169,-1.6858 -7.0773,-6.4429 -35.9172,1.6861 1.6861,35.9172 7.0775,6.4426 z m -21.9759,-54.387 -34.2309,37.6033 5.0045,4.5556 34.2309,-37.6033 z m -16.4418,-14.9672 -34.2309,37.6033 5.0046,4.5555 34.2308,-37.6032 z m 8.221,7.4835 -34.2309,37.6033 5.0046,4.5558 34.2309,-37.6033 z"
       style="fill:#f6f800;fill-opacity:1;fill-rule:evenodd;stroke:none"
       id="path4665"
       inkscape:connector-curvature="0" /><path
       inkscape:connector-curvature="0"
       id="path4667"
       style="fill:#002468;fill-opacity:1;fill-rule:evenodd;stroke:none"
       d="m 469.1409,2700.8688 7.3973,12.8135 c 0.059,0.102 0.1602,0.1604 0.2781,0.1604 h 34.3247 c 0.1176,0 0.2188,-0.058 0.2778,-0.1604 l 3.8296,-6.6328 v 14.866 l -6.0389,10.4607 h -16.3298 v -7.0282 h 7.3493 c 0.1769,0 0.3209,-0.1443 0.3209,-0.3209 v -7.6703 c 0,-0.1768 -0.144,-0.3211 -0.3209,-0.3211 h -15.3405 c -0.1769,0 -0.3209,0.1443 -0.3209,0.3211 v 23.0106 c 0,0.1768 0.144,0.3208 0.3209,0.3208 h 26.2525 c 0.1176,0 0.2188,-0.058 0.2778,-0.1604 l 3.8296,-6.6328 v 3.3608 l -10.5602,18.2914 c -0.059,0.102 -0.059,0.2191 0,0.3211 0.059,0.1021 0.1602,0.1605 0.2778,0.1605 h 6.175 c 0.1176,0 0.2188,-0.058 0.2778,-0.1605 l 3.8296,-6.633 v 6.4723 c 0,0.1769 0.144,0.3212 0.3209,0.3212 h 7.6705 c 0.1769,0 0.3209,-0.1443 0.3209,-0.3212 v -6.4723 l 3.8296,6.633 c 0.059,0.1021 0.1602,0.1605 0.2781,0.1605 h 6.1747 c 0.1177,0 0.2189,-0.058 0.2778,-0.1605 0.059,-0.102 0.059,-0.2191 0,-0.3211 l -10.5602,-18.2914 v -3.3608 l 3.8296,6.6328 c 0.059,0.1021 0.1602,0.1604 0.2781,0.1604 h 26.2522 c 0.1769,0 0.3209,-0.144 0.3209,-0.3208 v -23.0106 c 0,-0.1768 -0.144,-0.3211 -0.3209,-0.3211 h -15.3402 c -0.1769,0 -0.3212,0.1443 -0.3212,0.3211 v 7.6703 c 0,0.1766 0.1443,0.3209 0.3212,0.3209 h 7.3491 v 7.0282 h -16.3296 l -6.0392,-10.4607 v -14.866 l 3.8296,6.6328 c 0.059,0.102 0.1602,0.1604 0.2781,0.1604 h 34.3247 c 0.1177,0 0.2189,-0.058 0.2778,-0.1604 l 7.3973,-12.8135 14.7957,3e-4 c 0.118,0 0.2194,-0.058 0.2781,-0.1604 l 17.1621,-29.7261 c 0.059,-0.102 0.059,-0.2188 0,-0.3209 l -3.8293,-6.633 12.8744,7.433 6.0395,10.4604 -8.1647,14.142 -6.0865,-3.5144 3.6742,-6.3643 c 0.088,-0.1534 0.036,-0.3504 -0.1173,-0.4385 l -6.6424,-3.8353 c -0.1531,-0.088 -0.3501,-0.036 -0.4385,0.1173 l -7.6703,13.2855 c -0.088,0.153 -0.035,0.35 0.1176,0.4382 l 19.9276,11.5055 c 0.1531,0.088 0.3503,0.036 0.4385,-0.1173 l 13.1264,-22.7353 c 0.059,-0.102 0.059,-0.2188 0,-0.3209 l -3.8296,-6.633 2.9106,1.6803 10.5608,18.2912 c 0.059,0.102 0.1601,0.1604 0.278,0.1604 0.1177,0 0.2189,-0.058 0.2778,-0.1604 l 3.0875,-5.3473 c 0.059,-0.1021 0.059,-0.2191 0,-0.3212 l -3.8293,-6.6328 5.6049,3.2361 c 0.1531,0.088 0.3501,0.036 0.4386,-0.1174 l 3.8352,-6.643 c 0.088,-0.1531 0.035,-0.3501 -0.1176,-0.4382 l -5.6049,-3.2363 h 7.6589 c 0.1179,0 0.2188,-0.058 0.2781,-0.1605 l 3.0872,-5.3475 c 0.059,-0.1021 0.059,-0.2189 0,-0.3209 -0.059,-0.1021 -0.1602,-0.1605 -0.2778,-0.1605 l -21.1212,-2e-4 -2.9104,-1.6807 h 7.659 c 0.1176,0 0.2188,-0.058 0.2778,-0.1605 l 13.1261,-22.7352 c 0.088,-0.1531 0.036,-0.3501 -0.1177,-0.4385 l -19.9275,-11.505 c -0.1531,-0.089 -0.3501,-0.036 -0.4386,0.1173 l -7.6699,13.2854 c -0.088,0.1531 -0.036,0.3501 0.1173,0.4383 l 6.6424,3.835 c 0.1531,0.088 0.3501,0.036 0.4386,-0.1174 l 3.6748,-6.3646 6.0865,3.5141 -8.1646,14.1418 -12.079,-3e-4 -12.8744,-7.433 h 7.659 c 0.1179,0 0.2188,-0.058 0.278,-0.1605 l 17.1624,-29.7263 c 0.059,-0.1021 0.059,-0.2189 0,-0.3209 l -7.3979,-12.8132 7.3979,-12.8129 c 0.059,-0.102 0.059,-0.2191 0,-0.3211 l -17.1624,-29.7261 c -0.059,-0.102 -0.1601,-0.1604 -0.278,-0.1604 h -7.659 l 12.8744,-7.433 12.079,-3e-4 8.1646,14.1417 -6.0865,3.5141 -3.6748,-6.3646 c -0.088,-0.1531 -0.2855,-0.2058 -0.4386,-0.1173 l -6.6424,3.8347 c -0.1531,0.088 -0.2058,0.2854 -0.1173,0.4385 l 7.6699,13.2854 c 0.088,0.1531 0.2855,0.2055 0.4386,0.1174 L 646.4253,2580.7 c 0.1534,-0.088 0.2058,-0.2852 0.1177,-0.4382 l -13.1261,-22.7353 c -0.059,-0.1021 -0.1602,-0.1605 -0.2778,-0.1605 h -7.659 l 2.9104,-1.6806 21.1212,-3e-4 c 0.1176,0 0.2188,-0.058 0.2778,-0.1604 0.059,-0.1021 0.059,-0.2189 0,-0.3212 l -3.0872,-5.3473 c -0.059,-0.102 -0.1602,-0.1604 -0.2781,-0.1604 h -7.6589 l 5.6049,-3.2363 c 0.1531,-0.088 0.2058,-0.2855 0.1176,-0.4386 l -3.8352,-6.6427 c -0.089,-0.153 -0.2855,-0.2058 -0.4386,-0.1173 l -5.6049,3.236 3.8293,-6.6331 c 0.059,-0.102 0.059,-0.2188 0,-0.3208 l -3.0875,-5.3473 c -0.059,-0.1021 -0.1601,-0.1605 -0.2778,-0.1605 -0.1179,0 -0.2188,0.058 -0.278,0.1605 l -10.5608,18.2911 -2.9106,1.6801 3.8296,-6.6328 c 0.059,-0.102 0.059,-0.2188 0,-0.3209 l -13.1264,-22.7352 c -0.088,-0.1531 -0.2854,-0.2058 -0.4385,-0.1174 l -19.9276,11.5053 c -0.1531,0.088 -0.2058,0.2854 -0.1176,0.4385 l 7.6703,13.2851 c 0.088,0.1534 0.2854,0.2058 0.4385,0.1176 l 6.6424,-3.8352 c 0.1531,-0.088 0.2058,-0.2855 0.1173,-0.4385 l -3.6742,-6.3644 6.0865,-3.5144 8.1647,14.1421 -6.0395,10.4601 -12.8744,7.433 3.8293,-6.6328 c 0.059,-0.102 0.059,-0.2188 0,-0.3209 L 584.742,2526.91 c -0.059,-0.1023 -0.1601,-0.1607 -0.2781,-0.1607 l -14.7957,3e-4 -7.3973,-12.8132 c -0.059,-0.102 -0.1601,-0.1604 -0.2778,-0.1604 h -34.3247 c -0.1179,0 -0.2191,0.058 -0.2781,0.1604 l -3.8296,6.6328 v -14.866 l 6.0392,-10.4607 h 16.3296 v 7.0282 h -7.3491 c -0.1769,0 -0.3212,0.144 -0.3212,0.3209 v 7.6703 c 0,0.1769 0.1443,0.3209 0.3212,0.3209 h 15.3402 c 0.1769,0 0.3209,-0.144 0.3209,-0.3209 v -23.0105 c 0,-0.1769 -0.144,-0.3212 -0.3209,-0.3212 h -26.2522 c -0.1179,0 -0.2191,0.059 -0.2781,0.1607 l -3.8296,6.6328 v -3.361 l 10.5602,-18.2914 c 0.059,-0.1021 0.059,-0.2189 0,-0.3209 -0.059,-0.1021 -0.1601,-0.1604 -0.2778,-0.1604 h -6.1747 c -0.1179,0 -0.2191,0.058 -0.2781,0.1604 l -3.8296,6.6328 v -6.4724 c 0,-0.1768 -0.144,-0.3208 -0.3209,-0.3208 h -7.6705 c -0.1769,0 -0.3209,0.144 -0.3209,0.3208 v 6.4724 l -3.8296,-6.6328 c -0.059,-0.1021 -0.1602,-0.1604 -0.2778,-0.1604 h -6.175 c -0.1176,0 -0.2188,0.058 -0.2778,0.1604 -0.059,0.102 -0.059,0.2188 0,0.3209 l 10.5602,18.2914 v 3.361 l -3.8296,-6.6328 c -0.059,-0.102 -0.1602,-0.1607 -0.2778,-0.1607 h -26.2525 c -0.1769,0 -0.3209,0.1443 -0.3209,0.3212 v 23.0105 c 0,0.1769 0.144,0.3209 0.3209,0.3209 h 15.3405 c 0.1769,0 0.3209,-0.144 0.3209,-0.3209 v -7.6703 c 0,-0.1769 -0.144,-0.3209 -0.3209,-0.3209 h -7.3493 v -7.0282 h 16.3298 l 6.0389,10.4607 v 14.866 l -3.8296,-6.6328 c -0.059,-0.102 -0.1602,-0.1604 -0.2778,-0.1604 h -34.3247 c -0.1179,0 -0.2188,0.058 -0.2781,0.1604 l -7.3973,12.8132 -14.7957,-3e-4 c -0.1179,0 -0.2191,0.058 -0.2781,0.1607 l -17.1621,29.7261 c -0.059,0.1021 -0.059,0.2189 0,0.3209 l 3.8296,6.6328 -12.8743,-7.433 -6.0398,-10.4601 8.1649,-14.1421 6.0863,3.5144 -3.6743,6.3644 c -0.088,0.153 -0.036,0.3503 0.1173,0.4385 l 6.6425,3.8352 c 0.153,0.088 0.3503,0.036 0.4385,-0.1176 l 7.6703,-13.2851 c 0.088,-0.1531 0.036,-0.3501 -0.1177,-0.4385 l -19.9275,-11.5053 c -0.1531,-0.088 -0.3501,-0.036 -0.4386,0.1174 l -13.1264,22.7352 c -0.059,0.1021 -0.059,0.2189 0,0.3209 l 3.8297,6.6328 -2.9107,-1.6801 -10.5607,-18.2911 c -0.059,-0.1021 -0.1602,-0.1605 -0.2781,-0.1605 -0.1176,0 -0.2188,0.058 -0.2778,0.1605 l -3.0875,5.3473 c -0.059,0.102 -0.059,0.2188 0,0.3208 l 3.8296,6.6331 -5.6052,-3.236 c -0.1531,-0.089 -0.3501,-0.036 -0.4385,0.1173 l -3.835,6.6427 c -0.088,0.1531 -0.036,0.3504 0.1173,0.4386 l 5.605,3.2363 h -7.659 c -0.1176,0 -0.2188,0.058 -0.2777,0.1604 l -3.0875,5.3473 c -0.059,0.1023 -0.059,0.2191 0,0.3212 0.059,0.102 0.1601,0.1604 0.278,0.1604 l 21.121,3e-4 2.9106,1.6806 h -7.6589 c -0.118,0 -0.2192,0.058 -0.2781,0.1605 l -13.1261,22.7353 c -0.088,0.153 -0.035,0.35 0.1176,0.4382 l 19.9276,11.5053 c 0.153,0.088 0.3503,0.036 0.4385,-0.1174 l 7.6703,-13.2854 c 0.088,-0.1531 0.035,-0.3501 -0.1177,-0.4385 l -6.6424,-3.8347 c -0.1531,-0.088 -0.3501,-0.036 -0.4385,0.1173 l -3.6746,6.3646 -6.0865,-3.5141 8.1643,-14.1417 12.079,3e-4 12.8744,7.433 h -7.6589 c -0.1177,0 -0.2189,0.058 -0.2778,0.1604 l -17.1627,29.7261 c -0.059,0.102 -0.059,0.2191 0,0.3211 l 7.3982,12.8129 -7.3982,12.8132 c -0.059,0.102 -0.059,0.2188 0,0.3209 l 17.1627,29.7263 c 0.059,0.1021 0.1601,0.1605 0.2778,0.1605 h 7.6589 l -12.8744,7.433 -12.079,3e-4 -8.1643,-14.1418 6.0865,-3.5141 3.6746,6.3646 c 0.088,0.1531 0.2854,0.2055 0.4385,0.1174 l 6.6424,-3.835 c 0.1531,-0.088 0.2058,-0.2852 0.1177,-0.4383 l -7.6703,-13.2854 c -0.088,-0.153 -0.2855,-0.2058 -0.4385,-0.1173 l -19.9276,11.505 c -0.1531,0.088 -0.2058,0.2854 -0.1176,0.4385 l 13.1261,22.7352 c 0.059,0.1021 0.1601,0.1605 0.2781,0.1605 h 7.6589 l -2.9106,1.6807 -21.121,2e-4 c -0.1179,0 -0.2191,0.058 -0.278,0.1605 -0.059,0.102 -0.059,0.2188 0,0.3209 l 3.0875,5.3475 c 0.059,0.1021 0.1601,0.1605 0.2777,0.1605 h 7.659 l -5.605,3.2363 c -0.153,0.088 -0.2058,0.2851 -0.1173,0.4382 l 3.835,6.643 c 0.088,0.1531 0.2854,0.2058 0.4385,0.1174 l 5.6052,-3.2361 -3.8296,6.6328 c -0.059,0.1021 -0.059,0.2191 0,0.3212 l 3.0875,5.3473 c 0.059,0.102 0.1602,0.1604 0.2778,0.1604 0.1179,0 0.2191,-0.058 0.2781,-0.1604 l 10.5607,-18.2912 2.9107,-1.6803 -3.8297,6.633 c -0.059,0.1021 -0.059,0.2189 0,0.3209 l 13.1264,22.7353 c 0.088,0.1531 0.2855,0.2055 0.4386,0.1173 l 19.9275,-11.5055 c 0.1534,-0.088 0.2058,-0.2852 0.1177,-0.4382 l -7.6703,-13.2855 c -0.088,-0.153 -0.2855,-0.2058 -0.4385,-0.1173 l -6.6425,3.8353 c -0.153,0.088 -0.2058,0.2851 -0.1173,0.4385 l 3.6743,6.3643 -6.0863,3.5144 -8.1649,-14.142 6.0398,-10.4604 12.8743,-7.433 -3.8296,6.633 c -0.059,0.1021 -0.059,0.2189 0,0.3209 l 17.1621,29.7261 c 0.059,0.102 0.1602,0.1604 0.2781,0.1604 z m 50.2637,-79.0004 3.49,-2.0149 3.4894,-2.0143 v -4.03 -4.0297 l -3.4894,-2.0143 -3.49,-2.0152 -3.4898,2.0152 -3.4897,2.0143 v 4.0297 4.03 l 3.4897,2.0143 z m 34.2436,6.9106 23.2047,-11.1529 h 35.6837 l 5.2869,9.1567 -13.8881,24.0577 -12.0787,-3e-4 -10.2546,-5.9202 h 7.6589 c 0.1176,0 0.2188,-0.059 0.2778,-0.1607 l 3.0875,-5.3476 c 0.059,-0.102 0.059,-0.2188 0,-0.3208 -0.059,-0.1021 -0.1602,-0.1605 -0.2781,-0.1605 l -21.1206,-5e-4 -11.4648,-6.6189 z m -7.3125,-4.2202 -12.009,-6.9336 27.5324,9e-4 z m 3.1549,11.4213 17.5808,10.1489 10.5605,18.2911 c 0.059,0.1021 0.1601,0.1605 0.2781,0.1605 0.1176,0 0.2188,-0.058 0.2777,-0.1605 l 3.0875,-5.3478 c 0.059,-0.1021 0.059,-0.2189 0,-0.3209 l -3.8296,-6.6328 10.2547,5.9205 6.0394,10.4604 -13.89,24.0567 -10.5738,-8e-4 -17.8418,-30.9027 z m -7.3111,-4.2222 1.7575,16.9095 -13.7664,-23.843 z m 7.3111,-40.1196 1.9435,-25.6722 17.8418,-30.903 10.5738,-6e-4 13.89,24.0565 -6.0394,10.4604 -10.2547,5.9207 3.8296,-6.6328 c 0.059,-0.102 0.059,-0.2188 0,-0.3211 l -3.0875,-5.3476 c -0.059,-0.102 -0.1601,-0.1604 -0.2777,-0.1604 -0.118,0 -0.2192,0.058 -0.2781,0.1604 l -10.5605,18.2911 -11.4647,6.6189 z m -7.3111,4.2225 -12.0089,6.9336 13.7664,-23.8434 z m 11.4687,2.9789 6.1146,-3.5319 11.4648,-6.6192 21.1206,-3e-4 c 0.1179,0 0.2191,-0.058 0.2781,-0.1604 0.059,-0.1021 0.059,-0.2189 0,-0.3209 l -3.0875,-5.3479 c -0.059,-0.102 -0.1602,-0.1604 -0.2778,-0.1604 h -7.6589 l 10.2546,-5.9202 12.0787,-2e-4 13.8881,24.0576 -5.2869,9.1568 h -35.6837 z m -7.3125,4.22 15.5234,6.933 -27.5324,5e-4 z m -61.1745,-4.22 -23.205,11.153 h -35.6836 l -5.2869,-9.1568 13.8883,-24.0576 12.0787,2e-4 10.2546,5.9202 h -7.6589 c -0.1179,0 -0.2191,0.058 -0.2781,0.1604 l -3.0875,5.3479 c -0.059,0.102 -0.059,0.2188 0,0.3209 0.059,0.102 0.1602,0.1604 0.2781,0.1604 l 21.1207,3e-4 11.4647,6.6192 z m 7.3123,4.22 12.0089,6.9335 -27.5323,-5e-4 z m -3.155,-11.4214 -17.5808,-10.1486 -10.5604,-18.2911 c -0.059,-0.102 -0.1602,-0.1604 -0.2778,-0.1604 -0.118,0 -0.2192,0.058 -0.2781,0.1604 l -3.0875,5.3476 c -0.059,0.1023 -0.059,0.2191 0,0.3211 l 3.8296,6.6328 -10.2546,-5.9207 -6.0395,-10.4604 13.89,-24.0565 10.5741,6e-4 17.8416,30.903 z m 7.3111,4.2225 -1.7572,-16.9098 13.7662,23.8434 z m -7.3111,40.1193 -1.9434,25.6726 -17.8416,30.9027 -10.5741,8e-4 -13.89,-24.0567 6.0395,-10.4604 10.2546,-5.9205 -3.8296,6.6328 c -0.059,0.102 -0.059,0.2188 0,0.3209 l 3.0875,5.3478 c 0.059,0.1021 0.1601,0.1605 0.2781,0.1605 0.1176,0 0.2188,-0.058 0.2778,-0.1605 l 10.5604,-18.2911 11.4648,-6.6192 z m 7.3111,-4.2222 12.009,-6.9335 -13.7662,23.843 z m -11.4684,-2.9789 -6.1149,3.532 -11.4647,6.6189 -21.1207,5e-4 c -0.1179,0 -0.2188,0.058 -0.2781,0.1605 -0.059,0.102 -0.059,0.2188 0,0.3208 l 3.0875,5.3476 c 0.059,0.1021 0.1602,0.1607 0.2781,0.1607 h 7.6589 l -10.2546,5.9202 -12.0787,3e-4 -13.8883,-24.0577 5.2869,-9.1567 h 35.6836 z m 7.3123,-4.2202 -15.5234,-6.9327 27.5323,-9e-4 z m 22.7735,-47.89 -21.2613,-14.5193 -17.8415,-30.903 5.2863,-9.1576 27.779,-9e-4 6.0389,10.4607 v 11.8409 l -3.8296,-6.6328 c -0.059,-0.102 -0.1602,-0.1604 -0.2778,-0.1604 h -6.175 c -0.1176,0 -0.2188,0.058 -0.2778,0.1604 -0.059,0.1021 -0.059,0.2189 0,0.3209 l 10.5602,18.2914 v 13.2381 7.0616 z m 0,8.4425 v 13.8671 l -13.7662,-23.8439 z m 8.3137,-8.4425 v -7.0616 -13.2381 l 10.5602,-18.2914 c 0.059,-0.102 0.059,-0.2188 0,-0.3209 -0.059,-0.102 -0.1601,-0.1604 -0.2778,-0.1604 h -6.1747 c -0.1179,0 -0.2191,0.058 -0.2781,0.1604 l -3.8296,6.6328 v -11.8409 l 6.0392,-10.4607 27.7787,9e-4 5.2866,9.1576 -17.8418,30.903 -21.2613,14.5193 z m 0,8.4425 13.7662,-9.9768 -13.7662,23.8439 z m 0,65.8386 21.2613,14.5193 17.8418,30.903 -5.2866,9.1577 -27.7787,8e-4 -6.0392,-10.4607 v -11.8409 l 3.8296,6.6328 c 0.059,0.1021 0.1602,0.1605 0.2781,0.1605 h 6.1747 c 0.1177,0 0.2189,-0.058 0.2778,-0.1605 0.059,-0.102 0.059,-0.2188 0,-0.3209 l -10.5602,-18.2914 v -13.238 -7.0617 z m 0,-8.4424 v -13.8671 l 13.7662,23.8439 z m -8.3137,8.4424 v 7.0617 13.238 l -10.5602,18.2914 c -0.059,0.1021 -0.059,0.2189 0,0.3209 0.059,0.1021 0.1602,0.1605 0.2778,0.1605 h 6.175 c 0.1176,0 0.2188,-0.058 0.2778,-0.1605 l 3.8296,-6.6328 v 11.8409 l -6.0389,10.4607 -27.779,-8e-4 -5.2863,-9.1577 17.8415,-30.903 21.2613,-14.5193 z m 0,-8.4424 -13.7662,9.9768 13.7662,-23.8439 z" /><text
       xml:space="preserve"
       style="font-style:normal;font-variant:normal;font-weight:normal;font-stretch:normal;font-size:64px;line-height:125%;font-family:'Nimbus Roman No9 L';-inkscape-font-specification:'Nimbus Roman No9 L';letter-spacing:0px;word-spacing:0px;fill:#ffff00;fill-opacity:1;stroke:none;stroke-width:1px;stroke-linecap:butt;stroke-linejoin:miter;stroke-opacity:1"
       x="1217.0229"
       y="-2364.1956"
       id="text5073"
       transform="scale(1,-1)"><tspan
         sodipodi:role="line"
         id="tspan5075"
         x="1217.0229"
         y="-2364.1956"
         style="font-weight:bold;font-size:520px;fill:#ffff00;fill-opacity:1;-inkscape-font-specification:'Nimbus Roman,  Bold';font-family:'Nimbus Roman';font-style:normal;font-stretch:normal;font-variant:normal">TDK  ZIBENĪTIS</tspan></text>
<g
       id="g7843"
       transform="translate(175.45045,888.94893)"><path
         inkscape:connector-curvature="0"
         id="path4629-7"
         style="fill:#ffff00;fill-opacity:1;fill-rule:evenodd;stroke:none"
         d="m 7383.9394,1567.1714 h 31.4704 31.4711 v 31.4719 31.4702 h -31.4711 -31.4704 v 31.4715 h 31.4704 31.4711 v 31.4717 31.4702 h -31.4711 -31.4704 v 31.4715 h 31.4704 31.4711 31.4719 v -31.4715 -31.4702 -31.4717 h 31.4704 v 31.4717 31.4702 31.4715 h 31.4717 31.4702 31.4715 v -31.4715 h -31.4715 -31.4702 v -31.4702 -31.4717 h 31.4702 31.4715 v -31.4715 h -31.4715 -31.4702 v -31.4702 -31.4719 h 31.4702 31.4715 v -31.4702 h -31.4715 -31.4702 -31.4717 v 31.4702 31.4719 31.4702 h -31.4704 v -31.4702 -31.4719 -31.4702 h -31.4719 -31.4711 -31.4704 z" /><path
         inkscape:connector-curvature="0"
         id="path4631-8"
         style="fill:#ffff00;fill-opacity:1;fill-rule:evenodd;stroke:none"
         d="m 6679.8833,1702.0622 -25.5011,-65.7658 -81.4193,31.5719 25.5002,65.7631 -17.2263,6.6796 -25.4998,-65.7648 -81.4184,31.5716 25.4989,65.7642 -17.2267,6.6796 -25.5008,-65.7625 -65.7634,25.499 -6.6793,-17.2257 65.7633,-25.5 -31.5694,-81.4212 -65.7648,25.5008 -6.6789,-17.2259 65.7625,-25.5002 -31.5681,-81.4201 -65.7661,25.501 -6.6794,-17.2261 82.9909,-32.1793 38.2502,98.646 98.6456,-38.2513 38.2511,98.6452 98.6443,-38.2493 32.1807,82.9898 z m -162.3975,-126.1606 -81.4201,31.5717 31.5725,81.4186 81.4192,-31.5701 z" /><path
         inkscape:connector-curvature="0"
         id="path4655-2"
         style="fill:#ffff00;fill-opacity:1;fill-rule:evenodd;stroke:none"
         d="m 5485.3499,1699.3375 v 0 l -10.5881,107.2312 59.6081,-48.8952 48.8998,59.6088 10.5884,-107.2292 108.5019,10.7135 -48.8985,-59.6102 59.6131,-48.8992 -108.5069,-10.714 10.5882,-107.2289 -59.6132,48.8989 -48.8967,-59.6127 -10.5873,107.2284 -108.5061,-10.7138 48.8975,59.6113 -59.6096,48.8925 108.5063,10.7171 v 0 z m 54.4589,-100.7673 -2.0085,20.3468 -2.0094,20.346 -20.346,-2.0086 -20.3457,-2.0095 2.0087,-20.346 -20.3478,-2.0094 -2.0086,20.3468 -20.3466,-2.0094 -2.0085,20.3477 20.3456,2.0085 -2.0082,20.3466 20.3475,2.0086 2.0085,-20.346 20.346,2.0087 20.3466,2.0094 -2.0092,20.346 -2.0087,20.3466 -20.3468,-2.0092 -2.0086,20.3474 20.346,2.0094 -2.0086,20.346 20.3475,2.0092 2.0085,-20.3466 20.3468,2.0096 2.0086,-20.3479 -20.346,-2.0094 2.0087,-20.3457 2.0094,-20.3458 20.346,2.0085 20.3466,2.0092 -2.0096,20.346 20.3478,2.0094 2.0094,-20.3468 20.3458,2.0093 2.0094,-20.3474 -20.3464,-2.0094 2.0091,-20.3459 -20.3476,-2.0096 -2.0094,20.347 -20.3459,-2.0096 -20.3466,-2.0085 2.0091,-20.3466 2.0088,-20.346 20.3468,2.0087 2.0085,-20.3478 -20.3459,-2.0083 2.0085,-20.3468 -20.3474,-2.0086 -2.0086,20.346 -20.3459,-2.0086 -2.0094,20.3475 z" /><path
         inkscape:connector-curvature="0"
         id="path4657-0"
         style="fill:#ffff00;fill-opacity:1;fill-rule:evenodd;stroke:none"
         d="m 6063.0883,1501.6318 15.2226,17.7861 -53.5122,10.0205 -27.0049,-27.8783 -7.889,4.0813 9.8857,52.7857 0.6793,1.4178 69.1752,80.6829 3.0193,1.0636 33.2424,-6.2264 2.4292,-2.0837 5.6177,-15.9507 5.614,-15.9523 -0.5896,-3.1463 -22.0129,-25.6743 -3.0193,-1.0626 -33.2432,6.2235 -2.4303,2.0839 -2.1801,6.192 -15.248,-17.7851 2.7947,-7.9358 59.9014,-11.2182 39.6656,46.2673 -20.2347,57.4875 -59.9014,11.2182 -19.8347,-23.133 -24.2989,-28.3458 -8.2683,3.9617 4.381,23.3932 0.6881,1.4283 42.6624,49.3557 3.0099,1.0534 51.2349,-9.5947 -7.7741,22.0796 -48.2956,8.8726 -24.065,-28.0685 -8.2672,3.9614 5.0267,26.8444 0.6761,1.4139 49.8212,58.299 -5.9771,16.981 -6.2227,-7.2592 -3.0474,-1.0593 -18.2504,3.5656 -2.7637,4.0719 5.2855,28.2281 -19.937,3.7338 -5.2873,-28.2291 -4.0512,-2.7958 -18.8796,3.3889 -2.4565,2.0914 -3.1738,9.0177 -11.7066,-13.6554 25.8372,-72.8746 0.1229,-1.575 -5.1399,-27.4498 -9.1403,-0.7016 -12.6677,35.9782 -48.2336,9.2061 -15.2361,-17.7722 51.2195,-9.592 2.4116,-2.0394 22.5403,-61.3712 0.1353,-1.6082 -4.6035,-24.5815 -9.1413,-0.7017 -12.783,36.322 -10.1204,28.7438 -59.9005,11.2182 -19.8336,-23.1328 -19.8333,-23.1372 20.2367,-57.4859 59.8999,-11.2173 5.4777,6.3867 -7.7791,22.0967 -4.273,-4.9816 -3.0193,-1.0636 -33.2432,6.2254 -2.4303,2.0835 -11.2302,31.9013 0.5881,3.1474 11.0074,12.8399 11.0074,12.8356 3.0193,1.0628 33.2424,-6.2245 2.4292,-2.0835 35.681,-101.3521 0.1208,-1.5674 -9.8617,-52.6593 -8.8325,-0.9484 -15.4981,36.7386 -53.5131,10.0216 7.7561,-22.09 35.6196,-6.67 1.9908,-1.2985 27.0901,-39.5759 0.4899,-2.3245 -5.0518,-26.9776 19.9388,-3.7336 5.1609,27.5562 1.2975,1.9873 38.8909,26.6223 2.3251,0.4893 35.6204,-6.6694 z" /><path
         inkscape:connector-curvature="0"
         id="path4665-1"
         style="fill:#ffff00;fill-opacity:1;fill-rule:evenodd;stroke:none"
         d="m 7092.407,1688.4858 91.5382,-4.297 -18.0381,-16.4201 -91.5364,4.2976 4.2964,91.5372 18.0367,16.4201 z m -98.6573,-89.8096 -91.5376,4.2966 18.0373,16.4201 91.5381,-4.2972 -4.2979,-91.5376 -18.0375,-16.4195 z m -32.4357,-29.5271 -91.5374,4.2964 18.0363,16.4201 91.5384,-4.2976 -4.2978,-91.5372 -18.0369,-16.4197 z m -32.4362,-29.5279 -91.5384,4.2972 18.0377,16.4199 91.5376,-4.2976 -4.2976,-91.5368 -18.0371,-16.4201 z m 195.9658,178.3919 91.5366,-4.2964 -18.0369,-16.4207 -91.536,4.2976 4.2954,91.5374 18.0375,16.4195 z m 32.4362,29.5273 91.5368,-4.2964 -18.0372,-16.4203 -91.5374,4.2972 4.2973,91.5374 18.0373,16.4195 z m -56.0072,-138.609 -87.2398,95.8344 12.7542,11.6103 87.24,-95.8348 z m -41.903,-38.1453 -87.24,95.8348 12.7548,11.61 87.2395,-95.8344 z m 20.9518,19.0724 -87.24,95.8344 12.7548,11.611 87.2398,-95.8346 z" /></g></g></svg>